<?xml version="1.0" standalone="no"?>
<!DOCTYPE svg PUBLIC "-//W3C//DTD SVG 20010904//EN"
 "http://www.w3.org/TR/2001/REC-SVG-20010904/DTD/svg10.dtd">
<svg version="1.0" xmlns="http://www.w3.org/2000/svg"
 width="40.000000pt" height="40.000000pt" viewBox="0 0 40.000000 40.000000"
 preserveAspectRatio="xMidYMid meet">

<g transform="translate(0.000000,40.000000) scale(0.100000,-0.100000)"
fill="#000000" stroke="none">
<path d="M144 380 c-27 -10 -38 -26 -25 -35 6 -3 8 -12 4 -20 -3 -8 0 -15 7
-15 7 0 10 -7 6 -15 -4 -13 1 -14 34 -9 29 5 40 3 40 -6 0 -7 11 -21 25 -32
14 -11 25 -27 25 -36 0 -13 2 -14 9 -3 14 21 24 -5 17 -44 -5 -26 -14 -36 -39
-44 -26 -10 -34 -9 -43 4 -6 8 -16 15 -21 15 -20 0 -75 74 -70 96 3 16 0 21
-10 17 -7 -3 -13 0 -13 6 0 6 -9 11 -20 11 -11 0 -20 5 -20 12 0 24 -28 -16
-38 -54 -18 -66 13 -145 72 -186 64 -44 123 -49 189 -15 23 11 26 18 21 41 -4
15 -12 30 -17 34 -7 4 -6 12 2 22 11 13 17 14 28 5 7 -7 16 -9 20 -6 3 4 12 2
18 -3 19 -16 37 14 43 70 2 27 2 60 -2 74 -8 32 -61 93 -97 112 -31 15 -111
18 -145 4z"/>
</g>
</svg>
